<svg xmlns="http://www.w3.org/2000/svg" viewBox="0 0 100 100" width="100" height="100">
  <defs>
    <linearGradient id="fireGrad" x1="0%" y1="100%" x2="100%" y2="0%">
      <stop offset="0%" stop-color="#ff4500" />
      <stop offset="50%" stop-color="#ff8c00" />
      <stop offset="100%" stop-color="#ffd700" />
    </linearGradient>
    <linearGradient id="shieldGrad" x1="0%" y1="0%" x2="100%" y2="100%">
      <stop offset="0%" stop-color="#1e293b" />
      <stop offset="100%" stop-color="#0f172a" />
    </linearGradient>
  </defs>
  <path d="M50 5 L85 20 L80 65 L50 95 L20 65 L15 20 Z" fill="url(#shieldGrad)" stroke="#ff6b00" stroke-width="3"/>
  <path d="M50 18 C50 18, 65 35, 65 52 C65 64, 58 74, 50 78 C42 74, 35 64, 35 52 C35 38, 45 28, 50 18 Z" fill="url(#fireGrad)"/>
  <path d="M50 42 C50 42, 57 52, 57 60 C57 66, 53 71, 50 73 C47 71, 43 66, 43 60 C43 53, 48 48, 50 42 Z" fill="#ffffff" opacity="0.9"/>
  <text x="50" y="90" font-family="'Impact', 'Arial Black', sans-serif" font-size="12" font-weight="bold" fill="#ff8c00" text-anchor="middle" letter-spacing="1">TAG</text>
</svg>
